# xmcd
#
# Track frame offsets:
#	150
#	13771
#	28833
#	43360
#	60232
#	77039
#	88854
#	102970
#	117456
#	137059
#
# Disc length: 2003 seconds
#
# Revision: 0
# Processed by: cddbd v1.5.2PL0 Copyright (c) Steve Scherf et al.
# Submitted via: EasyCDDAExtractor 10.2.0.1
#
DISCID=8507d10a
DTITLE=Various Artist - HMG Christain Country Vol.95
DYEAR=2001
DGENRE=Gospel
TTITLE0=The Potter Sisters - Stompin
TTITLE1=Rory Hoffman - Weight Of The World
TTITLE2=Dwayne Williams - Don't Throw The Blood Away
TTITLE3=Sydney Davis - Looking Down
TTITLE4=J.R.Thomas - Pass That Message On
TTITLE5=Anan Mallik - I Just Wanna Be
TTITLE6=Steve Lutke - House Of Cards
TTITLE7=Amber Morgan - Labor Of Love
TTITLE8=Michael Cummings - My Fathers House
TTITLE9=Gladys Sims - I'm Still Dancing
EXTD=
EXTT0=
EXTT1=
EXTT2=
EXTT3=
EXTT4=
EXTT5=
EXTT6=
EXTT7=
EXTT8=
EXTT9=
PLAYORDER=
